<svg xmlns="http://www.w3.org/2000/svg" xmlns:xlink="http://www.w3.org/1999/xlink" width="1180" height="560" viewBox="0 0 1180 560"><defs><linearGradient id="Œ_ƒΩ_43" x1="777.35" y1="227.65" x2="786.43" y2="227.65" gradientUnits="userSpaceOnUse"><stop offset="0" stop-color="#0d5074"/><stop offset="1" stop-color="#00395a"/></linearGradient><linearGradient id="Œ_ƒΩ_43-2" x1="745.78" y1="227.44" x2="754.87" y2="227.44" xlink:href="#Œ_ƒΩ_43"/><linearGradient id="Œ_ƒΩ_43-3" x1="566.83" y1="325.28" x2="835.57" y2="325.28" xlink:href="#Œ_ƒΩ_43"/><linearGradient id="Œ_ƒΩ_43-4" x1="499.9" y1="281.74" x2="779.64" y2="281.74" xlink:href="#Œ_ƒΩ_43"/><linearGradient id="Œ_ƒΩ_3" x1="498.85" y1="378.81" x2="486.18" y2="357.04" gradientUnits="userSpaceOnUse"><stop offset="0" stop-color="#63b9db"/><stop offset="1" stop-color="#89ccee"/></linearGradient><linearGradient id="Œ_ƒΩ_19" x1="481.67" y1="388.81" x2="469.01" y2="367.03" gradientUnits="userSpaceOnUse"><stop offset="0" stop-color="#dcdcdc"/><stop offset="1" stop-color="#858585"/></linearGradient></defs><title>Adapt</title><g style="isolation:isolate"><g id="illustration-layer"><rect x="-2.7" y="-2" width="1188.4" height="564" fill="#2b87d3"/><path d="M788,220.9c.5,1.4,3.3,10.6,3.3,10.6H797c9.9-4.6,13.4-11.2,13.4-11.2,3.3-1.6,8.3-4.6,11.2-6.4,9.5.1,13.8.6,13.8.6l-3-.9,3,.9s6.6-1.4,7.8-2.3-7.9-2.7-6.7-3.6,6.4-6.3,6.4-6.3l-15.5-1.4H827l1.5-.9h.3s11-2.3.6-2.3c-6.9-.1-11.4.3-12.5,1.2h.1a3.8,3.8,0,0,0-2.3,1.5.6.6,0,0,0-.2.5c-3.7.5-18.6,3-23.6,5.6-2.2,1.1-2,1.9-1.1,2.5h-.2a41,41,0,0,0-7.4,3.6h1.1l-.6.3h-3.2l-2,.8H758.4l-2.2.2-12,5c-.4.1.1.2.9.2h26.3l-4.8,2-15.3,9.9h6.3s23-6.1,27.2-10.1l3.4-.9A1.1,1.1,0,0,0,788,220.9Zm-1.4-7.8h0l.4-.2A.5.5,0,0,0,786.6,213.1Zm.4-.2Zm-2.2,1h-5.4l1-.5h.7l-.8.4h4.5Zm43-13.9h0Z" fill="#116daa"/><g opacity="0.18"><path d="M786.4,227.3l-8.7.4c-.4,0-.3.2-.3.2a21.9,21.9,0,0,0,4.6-.1h1.2v.2h1.9A1.9,1.9,0,0,0,786.4,227.3Z" fill="url(#Œ_ƒΩ_43)"/><path d="M746.1,227.5c-.4,0-.3.2-.3.2a23.2,23.2,0,0,0,4.7-.1h1.2v.2h1.9a2.3,2.3,0,0,0,1.2-.7Z" fill="url(#Œ_ƒΩ_43-2)"/></g><path d="M554.2,209.9l-2.3.3h0l2.3-.3-.5-.4-3.6.6-21.6,3.4-8.8,4.2,3.9-3.7a27.1,27.1,0,0,0,3.4-1.8c3-1.7,2.6-2.8.1-4s-2.1-4.2-4.8-4h-1.1c1.1-1,3-2.8,3.7-3.3s1.4-.8,1.4-1.2.5-1.2-1.9-1.7-6-1.4-12.6.3-10.2,3.5-9.7,4.5,1.3,3,2.7,3.8c-5.8.9-11.4,1.8-13.2,2.3a9.3,9.3,0,0,0-6.1,3.1c-2.8,3-11.6,11.9-11.1,13.3s4.5.2,10-.3c-.5.4-.9.6-.9.7-3.7,1.2-10.5,4-13.9,8.3a77.6,77.6,0,0,0-7.9,12.2s-14.9,11.1-18,18.9h1.5a20.6,20.6,0,0,0-3.1,2.3c-.4.5-2.3,2-1.8,3.8s5.4,1.1,6,.1,1.3-2.7,1.8-3.5h.2l2.5-2.4H452s20-15.6,24.4-18.7c1.3-.9,4.3-3.3,7.9-6.2-1.4,1.6-2.7,3.1-3.8,4.2-5.7,5.8-12.8,16.7-12.8,16.7h.6a10.1,10.1,0,0,0-1.9,1.7c-.6.7,0,2.2.8,3s3.2.7,4.5.6,1.3-.9,1-1.3h0a7.1,7.1,0,0,1-.6-2.5,3.8,3.8,0,0,1,.5-1.2h.2c0-.1,0-.1.1-.1h0s21.8-18.9,31.9-27.9l-.2.3s3.2-.9,4-1.6a25.1,25.1,0,0,0,2.5-2.6l-2.1.2h2.1l4.1-7,.8-1,16.3-2.9Zm-63.3,10.6-.4.3h0l-.9.7h-1.4c-1.2,0,5.3-5.1,7.4-8.8C495,215.3,491.8,219.6,490.9,220.5Z" fill="#116daa"/><path d="M693,155l-17.1,8.1-6.1,2.6.4-.2c-13.6,6-41.8,19-41.8,19h-.5a8.6,8.6,0,0,1-2.1.4,34.7,34.7,0,0,1-4.7-.2h0c-.9-.1-2.3-.1-2.2.6a3,3,0,0,0,2.5,2.4c1.6.4,4.6.7,5.7.3a22.6,22.6,0,0,0,2.6-1.1l.2.3s17.8-4.5,26.9-7.9c1.7-.7,4-1.5,6.6-2.3l-9.1,4.6c-4,2.4-23.4,12.4-26.8,14.1q-.4.3-.3.6h0c.1.2-.1.4-.5.6l-2.9,1.2h-.5c-1.4.4-4.5.9-6,1.2s-1.7,3.1,1.9,3.3a14.7,14.7,0,0,0,6.6-1.2,29.1,29.1,0,0,0,3.2-1.8l.4.8c13.4-2.2,29.5-10.9,29.5-10.9s10.5-2,20.2-5c6.9-2.1,10-5.9,11.2-8l.9-.5c.8,3,1.6,5.4,2.5,5.4,2.6.2,16.5-5.1,21.2-6.7s4.3-7.6,4.3-10.9h0c1.8.8,5.9,1.1,7.7,1.3s4.3-1.8,5.5-5.5-1.4-5.6-3.1-6.9-10.5,1.6-10.6,1.5-13.8-3.9-16.2-2.2c-.8.7-3.6-14.9-3.6-14.9v1.3c1.6,6.8,0-1.3,0-1.3Z" fill="#116daa"/><path d="M472.8,333.8c0-.2-1.7-.5-1.7-.5h-.3a10.4,10.4,0,0,1,6-4.5l2.5-.9h0l2.1-.4c7.2-1.6,7-2,5.3-3h-.3l-5-.6.2-.2.5-.7,2.3-.3a54.6,54.6,0,0,0,7.1-.8c2-.6,1.9-1.2,1.7-1.5l1.9-.4c1.3-.4,1.5-1.4-5.9-1.3s-18.7,1.2-21,2.3-18.4,1.9-26.4,4-.3,2.6,8.8,2h1.2c-3.2,1.7-5.2,3.4-9.3,3.8a78.7,78.7,0,0,0-13.1,2.5h.3c-4.4,1.4-13.3,4.5-12.8,5.9a120.4,120.4,0,0,0-16.7,7.4h.1c-.3.1-.3.2-.1.2s5.4-.1,5.4-.1h3.7l4-.3-3.6,1.4h-.1s-2.7.7-1.7.8,6.9-.1,6.9-.1l.6-.2h4.2c1.3-.1,8.1-.6,8.8-.9s-1.3-.3-2.3-.2l-7.1.3c6.6-1.6,27.7-6.8,32.1-8.1s10.4-3.7,14.3-5.3l-1.1.8c0,.1.2.2,1.4.1l4.8-.4a1.3,1.3,0,0,0,.9-.4Zm-58.6,11.8-3.5.2,29.6-9.6-5.2,2.8s-11.6,3.5-20.3,6.6Z" fill="#116daa"/><path d="M883.1,398.1a64.7,64.7,0,0,0,5.7-5.1h-.1c.3-.3.4-.6.2-.8s-9-1.6-12-1.4h-2l2.5-.5c.3,0,5.5-.9,5.8-1.6s1-1.6-3.7-1.7-15.9.5-15.9.5l-1.5.9h.7l-3.5,2c-.9.6.9.7.9.7h3l-1.1.6h-1.7a10.2,10.2,0,0,0-3,.7l-6,.5-4.9.4c-10,.9-7.3,4.1-14.6,6.3l-18,5.7h.2l-3.8.6c-.6.1,0,.3,1,.1s.4.1,0,.2l-1.6.4h.9a1.9,1.9,0,0,0,1,.2s-.1.1.5.1h.9a10.9,10.9,0,0,0,2.4-.1l4.7-1.3h.7l9.8-1.8c-3,1.9-13,8.4-13.8,9.1L806,421.2l-3.3-.2c-3.7-.3-7.8.2-7.4.4a23.1,23.1,0,0,0,5.2,1.1l4.6.2,4.5.4,5.3-.4.2-.3h.1l3.3-1.5a23.5,23.5,0,0,0,4,.8l4.5.2,4.3.5,5.3-.4.6-.5,17.4-9.5s6.7-3.9,11.9-6.6c3.4-1.7,4.4-2.5,4.7-2.8h2.3S880.9,399.6,883.1,398.1ZM825,420.2h-4.9l13.7-6.4-6.5,6.6Z" fill="#116daa"/><path d="M557.5,439.9a64.7,64.7,0,0,0,5.7-5.1h-.1c.3-.3.4-.6.2-.9s-9.1-1.5-12-1.4l-2,.2,2.5-.5c.3-.1,5.5-1,5.8-1.6s1-1.6-3.7-1.7-15.9.5-15.9.5l-1.5.8h.7l-3.5,2c-.9.5.9.7.9.7h3l-1.1.7h-1.7a14.8,14.8,0,0,0-3,.7l-6,.5-4.9.5c-10,.9-7.3,4.1-14.6,6.2l-18,5.7h.2c-1,.2-3.4.5-3.8.7s0,.2,1,.1.3.1,0,.1l-1.6.5H486s-.1.2.5.2h.9a10.9,10.9,0,0,0,2.4-.1c.8-.1,3.9-1,4.7-1.2h.7l9.8-1.9c-3,2-13,8.5-13.8,9.2L480.4,463l-3.3-.3c-3.7-.2-7.8.2-7.4.5a30.4,30.4,0,0,0,5.2,1.1h4.6l4.5.5,5.3-.4.2-.3h0l3.4-1.6a24.6,24.6,0,0,0,4,.9l4.4.2,4.4.5,5.3-.4.6-.5,17.4-9.6s6.7-3.9,11.9-6.5c3.4-1.7,4.4-2.5,4.7-2.9h2.2S555.3,441.4,557.5,439.9Zm-58.1,22h-4.9l13.7-6.3-6.5,6.5Z" fill="#116daa"/><path d="M659.8,487.2h-1.2l18.1-14.3s6.6-4.1,13.6-8.7a43.8,43.8,0,0,0,7.6-6.1h.6a18.6,18.6,0,0,0,2.9-4.1l2.2-1.8a115,115,0,0,0,25.8-9.8,16,16,0,0,0-5.6-3.7l-.5-.2v-.2l-1.6-.2,3.3-2,.6-.2a8.3,8.3,0,0,0,3.6-.8c.3-.1,1.9-.8,1.9-1.1h-1.2l2.6-1.5c3.1-1.9-4.4-2.3-6.4-2.2-7.5.1-10.9,2-12.5,3l-.7.5a8,8,0,0,0-1.8.4c-.5.3-1.2.8-1.2,1.2s.1.6,1.6.3c-.1.2-.1.3,0,.4l-2.4,2-2.5.2-3.6,1.1-16.4,2.3c-6.4,1.3-11.9,2.3-21.1,6.7-4.4,2.1-23.8,13.3-23.8,13.3h.9l-1.2.5-5.2,1.5-.4.3c-.1.2,1.5,1.5,1.6,1.6s.9.1.9.1h.3l-1.8,1.2h-.2l-3.3.5L622.9,474h5.5l3.5-1,9.6-6.3h-1.9l2-1.3c.1-.1,0-.1-.3-.1h-.4l1.5-.2,3.1-.7a11.9,11.9,0,0,0,1.7-1c.2-.2,0-1.1.7-1.8H649l18.4-8-8.4,4.9h.3c-3.3,2.3-9.6,6.6-12.7,9.1s-16.9,17.9-19.8,21.1H622a9,9,0,0,0-3.3.6s-.4.5,1.4.8,3.7,0,4.5.1l4.7.2a19.3,19.3,0,0,0,3.4-.3c.7-.1.9-.5.9-.9l29.9-18.9c-5.1,6.9-11.9,16.5-13.1,18.2s-.8.6-.5.7a11,11,0,0,0,2.6,0l4.6-.5A11,11,0,0,0,659.8,487.2Z" fill="#116daa"/><polygon points="750 144.2 747 143.8 746.8 146.1 750 146.4 750 144.2" fill="#fff"/><polygon points="755.3 145.4 755 149.7 753.5 149.6 753.7 147.1 745.7 146.6 745.5 149.1 744.1 149 744.4 144.7 755.3 145.4" fill="#002138"/><rect x="726.8" y="148.7" width="38.2" height="26.27" rx="7.5" ry="7.5" transform="translate(1478.9 374.5) rotate(-176.1)" fill="#0a3960"/><rect x="729.6" y="148.9" width="38.2" height="26.27" rx="7.5" ry="7.5" transform="translate(1484.4 375.1) rotate(-176.1)" fill="#002138"/><path d="M764,105.8s-6.8,16.4-9.2,22.7-4,15.7-4,15.7l-4.6-.4a121.2,121.2,0,0,1-.1-17.8c.8-9,3.3-20.4,4.6-22.1Z" fill="#0c5689"/><path d="M757.8,89.5s-12.2,7.8-12,21.9,5.8,18.5,6.9,24.5l4.2-46.4Z" fill="#0c5689"/><path d="M783,148.9s-2.4-.4-20.3,1.8l9.7-17.6Z" fill="#0c5689"/><polyline points="750.8 149.2 751.1 147.1 746.3 146.8 746.1 148.9" fill="#fff"/><path d="M776.3,143s4.1,27,4.2,39.3c0,0,7.6,32.1,7.1,54.1l-4.4-.3-19.5-52.2c-2.6-6.9-6.7-35.7-5.8-43.3Z" fill="#002138"/><path d="M750,146.4l-2.6,38.2,3.6,48,5,.3s8.6-28.5,5.5-48.1c3.8-13.3,7.3-46.4,7.3-46.4Z" fill="#002138"/><g id="_Group_" data-name="&lt;Group&gt;"><path id="_Path_" data-name="&lt;Path&gt;" d="M793.6,230.9a8.1,8.1,0,0,1,.1,3.3h-1.9l-.4-.9a3.9,3.9,0,0,0-1.2.2c-.5.1-2.7,1.2-4.5.3,0,0-.4-.9-.2-1.1S793.6,230.9,793.6,230.9Z" fill="#002138"/></g><g id="_Group_2" data-name="&lt;Group&gt;"><path id="_Path_2" data-name="&lt;Path&gt;" d="M761.6,229.9a8.1,8.1,0,0,1,.1,3.3h-1.9l-.4-.9-1.2.2c-.5.1-2.7,1.2-4.5.3,0,0-.4-.9-.1-1.1S761.6,229.9,761.6,229.9Z" fill="#002138"/></g><path d="M756.8,90.2l13,2.2c-1.7,7,6.5,50.6,6.5,50.6L750,146.4s2.6-15.4,1.3-23.6S750,101.8,756.8,90.2Z" fill="#116daa"/><path id="_Path_3" data-name="&lt;Path&gt;" d="M758.8,85.6c1.2.1,4.2-3.4,5.8-3.3l1.3,7.9a3.7,3.7,0,0,1-3.8,4h0c-2.8-.1-5-.2-5.4-3l-.5-4.4S755.3,85.5,758.8,85.6Z" fill="#fff"/><path id="_Path_4" data-name="&lt;Path&gt;" d="M751,85.7c-.6-4-1.5-6.8-.4-11.6.8-3.1,13.2-2.3,15.8,1.1,0,0-1,6.4-1.1,8.8,0,.8-1.6,2.3-2.3,3.2a14.2,14.2,0,0,1-7,4.1h-1.3C752.9,91.2,751.7,89.7,751,85.7Z" fill="#fff"/><path id="_Path_5" data-name="&lt;Path&gt;" d="M761.1,68.3c11.5,1.1,4.7,16,4.7,16H764a19.3,19.3,0,0,1-.8-2.8,2.8,2.8,0,0,0,.3-1.9c0-.6-.4-1.1-1.5-1a1.5,1.5,0,0,0-1.5,1.3c-.6-.1-1.1-.3-1.1-.6s-.6-4.9-.5-5.2l6.5,2.2s-15.4,1.2-15.9.4C748.8,70.7,753.5,67.6,761.1,68.3Z" fill="#002138"/><path d="M765.7,88.5s-.5,19.3,5,35.3c6.8,19.9,3.1,24,9.6,42.7,0,0,6.7-11.6,6.1-16.3s-2.7-20.8-3.2-25.2c-.3-2.4-1.7-11.2-2.9-18.8a23.7,23.7,0,0,0-12.6-17Z" fill="#0c5689"/><path d="M766.1,158.3s-.9,8-1,8.7-.9.3-.8-.1-.3,1.5-1,1.5-.5-.7-.5-.7-.6,1.1-1.1.9a.7.7,0,0,1-.2-1,.8.8,0,0,1-1,0c-.4-.4-.5-2.1,0-3.5a7.8,7.8,0,0,0,.5-3.6c-.1-.3-.4.2-.4.2l-1.8,1.9s-.9.7-.8-.7,1.5-2.4,1.8-2.7a15.3,15.3,0,0,1,2.8-2.5C763.3,156.3,766.1,158.3,766.1,158.3Z" fill="#fff"/><path d="M766.3,94c2.9-.8,5.1.4,7.1,1.8,7,5.1,6.1,23.4,5.4,28-1.5,10.3-11.9,36.1-12.3,34.8l-4.7-1.2s5.7-26,6-30.3-3.6-17.4-2.9-23.8S766.3,94,766.3,94Z" fill="#0c5689"/><path d="M472.5,112.5s-1.3,25.1-.7,29.8,2.6,20,2.6,20l-4.1.8L463,128.2Z" fill="#0c5689"/><path d="M462,252.2a46.5,46.5,0,0,0-.3,5.5c0,1.9,2.1,6.2,3.6,8.4a4.5,4.5,0,0,0,5.1,1.8c1.2-.4.4-2.6-.3-3.8a59.3,59.3,0,0,1-2.9-7,24,24,0,0,1-.8-4.9Z" fill="#0c5689"/><path d="M461.9,253c.5,1.9,1.7,6.3,2.6,8.6s4.4,5.3,5.9,3l-.3-.5a59.3,59.3,0,0,1-2.9-7,24,24,0,0,1-.8-4.9H462A2.8,2.8,0,0,0,461.9,253Z" fill="#fdefcd"/><path d="M443.1,262.5s-1.5,6.5-1.4,8.2-.4,5.6,1.9,11,6.5,3.1,6.1.1-1.6-9.3-1.6-10.9.2-8.4.2-8.4Z" fill="#0c5689"/><path d="M443.1,262.5a73.1,73.1,0,0,0-1.3,7.2c0,.1,1.6,7.9,3,9.7a2.6,2.6,0,0,0,4.5-.5c-.5-3-1.2-6.8-1.2-8s.2-8.4.2-8.4Z" fill="#fdefcd"/><path d="M445.1,149.7s-8.7,8.8-7.7,25.9,3.8,34.9,3.8,34.9-4.3,31.6,0,53.7h8.2s5.1-44.4,6.6-53.2,6.2-64.6,6.2-64.6Z" fill="#002138"/><path d="M462.2,146.4l5.8-6.2s4.2,14.6,4.5,20.2-5.9,92.3-5.9,92.3h-5.3s-3.3-30.8-3.1-47.4-3.3-56.7-3.3-56.7Z" fill="#002138"/><path d="M435.4,104.2c3.2-3,23.6-13.1,26.1-13.7s5.1,8,8.7,11.4,5,6.6,3.7,11.6-3.9,8.7-4.3,12.7-.5,16-.9,17.3-6.5,4-10.2,4.7-15.2,3.7-15.2,3.7,2.2-12.3,2.3-15-1-18-3.4-24.5S435.4,104.2,435.4,104.2Z" fill="#0c5689"/><path d="M435.4,104.2s-3.3.4-3.2,8.9-.1,34,1.6,37.8,32.9-8.7,32.9-8.7l-1-6.8s-19.7,4.7-21.7,4.5S450.8,100.9,435.4,104.2Z" fill="#0c5689"/><path d="M474.4,162.3s.2,5.4,0,7.4-2.5,4.6-2.5,4.6l-.6-11.2Z" fill="#fdefcd"/><path d="M446,95.1s2.2,3.1,2.6,4.9,7.3,6.4,10.5,5.7c.9-.3,1.1-1.4.8-2.4s-2.5-10.5-2.5-10.5Z" fill="#fff"/><path d="M461,80.8s-.4,9.6-.6,11.5-2.8,5.8-3.7,6.1-5.3-1-7.3-2.2-4-7.2-4-7.2l2.9-8.1,6.5-1.8Z" fill="#fff"/><path d="M449.5,84.1c-3.1-1.2,9.8-1.1,11.5-2.7s.7-2.2.3-3.3-.6-3.4-3.5-4.9-7.3-3.9-12.4.9-6.8,10-5.3,12.9,5,10.3,7.2,11.3,4.6-1.4,4.6-1.4-2.4-4.1-3-5S451.7,85,449.5,84.1Z" fill="#002138"/><polygon points="445.3 139.8 464.7 135.6 445.6 137.8 445.3 139.8" fill="#0c5689"/><path d="M476.6,116.9c3.1-1.5,21.4-11.1,21.4-11.1l-13.6,24.5-17.2,10.4Z" fill="#fdefcd"/><path d="M477.4,117.9c3.1-1.5,21.5-11.1,21.5-11.1l-13.7,24.5L468,141.7Z" fill="#002138"/><polygon points="468 141.7 467.2 140.7 469.3 135.5 470.4 135.7 468 141.7" fill="#fdefcd"/><polygon points="498.9 106.8 498 105.8 495 107.4 495 108.8 498.9 106.8" fill="#fdefcd"/><path d="M464.5,136.6a20.8,20.8,0,0,0,2.6-2.6,27.4,27.4,0,0,1,2.8-2.6s1.5.6.7,1.7a2.1,2.1,0,0,1-1.7.9s2.9.4,3.2,0,.2-1.4.6-1.6,1.5,0,1.6.7a7.3,7.3,0,0,1-1.1,3,22.1,22.1,0,0,1-2.8,2.3c-.1.2-4.8,1.4-4.8,1.4Z" fill="#fdefcd"/><path d="M607.8,205.6s.3,3.6.3,5.5-2.2,6.2-3.7,8.4a4.5,4.5,0,0,1-5.1,1.7c-1.2-.4-.4-2.5.3-3.7a56.7,56.7,0,0,0,2.9-7,24,24,0,0,0,.8-4.9Z" fill="#0c5689"/><path d="M607.8,206.4a62.5,62.5,0,0,1-2.6,8.6c-1.1,2.7-4.4,5.2-5.9,3l.3-.5a56.7,56.7,0,0,0,2.9-7,24,24,0,0,0,.8-4.9h4.5Z" fill="#fdefcd"/><path d="M626.6,215.9s1.5,6.5,1.4,8.1a25.2,25.2,0,0,1-1.9,11c-2.3,5.4-6.4,3.1-6.1.2s1.7-9.3,1.7-10.9-.3-8.4-.3-8.4Z" fill="#0c5689"/><path d="M626.6,215.9a73.1,73.1,0,0,1,1.3,7.2c0,.1-1.5,7.9-3,9.7a2.6,2.6,0,0,1-4.5-.5,73.7,73.7,0,0,0,1.3-8c0-1.6-.3-8.4-.3-8.4Z" fill="#fdefcd"/><path d="M627.4,105.4s5.9,6.4,4.9,23.6-3.8,34.9-3.8,34.9,4.3,31.6,0,53.7h-8.2s-5.1-44.4-6.6-53.2-6.2-64.7-6.2-64.7Z" fill="#002138"/><path d="M607.5,99.7l-5.8-6.1s-4.4,14.6-4.4,20.2c-.1,23.2,5.9,92.3,5.9,92.3h5.2s3.3-30.8,3.1-47.4,6.1-55.9,6.1-55.9Z" fill="#002138"/><path d="M629.9,59.3c-3.2-3-17.6-7.7-20.1-8.2s-4.7,7.7-8.3,11.1-5.1,6.5-3.8,11.5,4.4,4.5,4.8,8.5-1.9,13.4-1.5,14.6,6.5,4.1,10.2,4.8,17.2,5.2,17.2,5.2-1.2-14.7-1.3-17.4-2-17.2.4-23.6Z" fill="#ffcd1c"/><path d="M629.5,57.5s6.8.6,6.7,9.1,2.9,30.5,1.1,34.3S603,95.5,603,95.5l1-6.7s19.8,4.6,21.7,4.5S617.4,55.2,629.5,57.5Z" fill="#ffcd1c"/><path d="M620.8,44.1s.4,8.4,0,10a4.8,4.8,0,0,1-5.6,3.6,1.9,1.9,0,0,1-1-2.2c.2-.9-1-10.8-1-10.8Z" fill="#fdefcd"/><path d="M609.2,36.7s-.1,7.6.1,9.3.7,6.2,2.2,6.8,6.1-1.6,7.8-2.6,3.5-6.3,3.5-6.3l-2.5-7.1-5.7-1.6Z" fill="#fdefcd"/><polygon points="627.2 93.7 607.8 90.7 627.4 92 627.2 93.7" fill="#dd9903"/><g id="_Group_3" data-name="&lt;Group&gt;"><path id="_Path_6" data-name="&lt;Path&gt;" d="M534.7,372.1v-.6a.1.1,0,0,1-.1-.1h0v-.5c0-.1-.1-.2-.1-.4h0V370a.9.9,0,0,1-.1-.5.1.1,0,0,1-.1-.1h0v-.2l-.2-.5a.4.4,0,0,0-.1-.3h0c0-.2-.1-.3-.1-.5s-.1-.3-.2-.4h0a.4.4,0,0,1-.1-.3c-.1-.2-.2-.3-.2-.4a.4.4,0,0,1-.1-.3h-.1l-.2-.5a.8.8,0,0,0-.2-.4h0a.1.1,0,0,1-.1-.1c0-.1-.1-.2-.2-.3s-.1-.3-.2-.5a.3.3,0,0,1-.1-.2c-.1,0-.1,0-.1-.1l-.2-.3a2.1,2.1,0,0,0-.4-.6h0l-.5-.7h-.1l-.3-.5-.4-.3h0l-.3-.3-.3-.4a.1.1,0,0,1-.1-.1h0l-.3-.3-.3-.3h-.2c-.1-.1-.2-.1-.2-.2l-.4-.3-.2-.2h-.2l-.4-.3c0-.1-.1-.1-.2-.2H527l-.4-.2-.3-.2h-.4a.5.5,0,0,0-.4-.2h-.6l-.4-.2h-1.7a.1.1,0,0,1-.1-.1h-.6a.1.1,0,0,0-.1.1h-1.3l-.6.3-18.3,10.6-.3-.2h-.1l-.6-.3-.6-.4h-.1l-.4-.2-.5-.3h-.6l-.5-.2-.5-.2H497l-.5-.2h-.4a.1.1,0,0,0-.1-.1h-3.4l-.8.2h0l-1.1.4-39.1,22.8c0-.1-.1-.1-.2-.1S325,442.7,297.6,458.6c-35.7,20.8-9,79,32.3,54.3,57.5-34.4,140.5-92.5,140.5-92.5l39-22.6.7-.5.3-.2.4-.5c.1-.1.2-.1.2-.2l.6-.7h.1a4.1,4.1,0,0,1,.5-.9h0l.3-.6a.4.4,0,0,1,.1-.3v-.2c.1,0,.1-.1.1-.2s.1-.4.2-.6v-.3a.1.1,0,0,1,.1-.1v-.3c0-.2.1-.4.1-.6v-.4h.1v-1.3h0V389l19-11,.5-.4h.1l.3-.3.2-.2.3-.4h.1l.3-.6h0a.5.5,0,0,0,.2-.4.3.3,0,0,0,.1-.2h0a.1.1,0,0,1,.1-.1.6.6,0,0,1,.1-.4v-.2h0c0-.1,0-.1.1-.2v-.6h.1v-.8h0Z" fill="#116daa"/><path id="_Path_7" data-name="&lt;Path&gt;" d="M783.5,249.9c-18.6-10.8-40.2-18.6-63.3-23.6A202,202,0,0,1,752.1,241c69.1,39.8,69.4,104.5.8,144.4-50.2,29.2-123.3,37-186.1,23.5,68.2,24.5,158.7,19.6,217.5-14.6C853,354.4,852.6,289.8,783.5,249.9Z" opacity="0.51" fill="url(#Œ_ƒΩ_43-3)"/><path id="_Path_8" data-name="&lt;Path&gt;" d="M812.2,282.4v1.9a5.7,5.7,0,0,0-.1,1.3c0,.4-.1.8-.1,1.1s-.1.9-.1,1.3-.1.8-.1,1.2-.1.8-.2,1.3-.1.7-.2,1.1a5.9,5.9,0,0,1-.2,1.3c-.1.4-.1.7-.2,1.1l-.3,1.3a4.3,4.3,0,0,0-.2,1.1,6.5,6.5,0,0,0-.4,1.3l-.3,1.1c-.1.4-.3.9-.4,1.4l-.3,1a7.8,7.8,0,0,0-.5,1.4,10.4,10.4,0,0,0-.4,1l-.8,2c0,.1-.1.2-.1.4l-1.1,2.4-.3.7-.9,1.6-.5,1-.7,1.4-.5.8-1,1.7-.6.9-.9,1.5a6.1,6.1,0,0,0-.7,1l-1,1.5-.7.9-1.2,1.5-.7.9-2.1,2.6-.4.5c-.6.7-1.3,1.4-1.9,2.2l-.8.7-1.9,2-.6.7-2.7,2.5-1,.9-1.3,1.2-1.1.9-1.3,1.1-1.2,1-1.4,1.1-1.2.9-1.4,1.1-1.3.9-1.4,1.1-1.4.9a7.8,7.8,0,0,1-1.5,1l-1.3,1-1.6,1-1.4.9-1.6,1-2.6,1.5-3.9,2.2-1.2.6-3.1,1.6-1,.6-4.1,2-.7.3-3.5,1.6-1.3.5-3.5,1.5-.8.4-4.4,1.7-1.1.4-3.4,1.2-1.3.5-4.2,1.4h-.3l-3.9,1.2-.9.3-3,.9-1.4.4-2.5.7-1.6.4-2.4.6-1.7.4-2.2.6-1.8.4-2.3.5-1.8.3-2.2.5-1.9.4-2.2.4-1.6.3-3.8.6-1.2.2-4.9.7-1.1.2-3.9.5-1.5.2-4.1.4h-1l-4.4.4h-.8l-3.7.3H621.8l-1.9-.2h-2.4l-1.8-.2-2.5-.2h-1.6l-2.9-.3-1.3-.2-4.1-.5h-.5l-3.6-.5-1-.2-3.2-.4-1.5-.3-2.6-.4-1.7-.3-2.5-.5-1.7-.3-2.4-.5-1.6-.3-2.7-.6-1.7-.4-2.6-.6-1.7-.4-2.7-.7-1.5-.4-3.3-.9-.8-.2-4.8-1.4-1.2-.4-3.8-1.3-1.1-.3-4.6-1.6-1-.4-3.7-1.4-1.4-.6-1.5-.6-1.9-.8-1.5-.6-1.9-.8-1.4-.7-1.9-.8-1.4-.7-1.9-.9-1.4-.7-1.9-.9-1.2-.7-2.2-1.1-1-.6-3.1-1.7c-34-19.6-50.9-45.4-50.9-71.1v39.3c0,25.7,16.9,51.5,50.9,71.1l3.1,1.7,1,.6,2.1,1.1,1.3.7,1.9,1,1.4.6,1.9.9,1.4.7,1.9.9,1.4.6,1.9.8,1.5.7,1.9.8,1.5.6.7.2.7.3,3.7,1.4,1,.4,4.6,1.6,1,.3,3.8,1.3,1.3.4,4.8,1.4h0l.7.2,3.4.9,1.5.4,2.7.7,1.7.4,2.6.6,1.7.4,2.7.6,1,.2h.6l2.4.5,1.7.3,2.5.5,1.7.3,2.6.4,1.5.3,3.2.5h1l3.6.5h.5l4.1.4,1.3.2,2.9.3h1.6l2.5.3h1.8l2.4.2h31.6l2.8-.2h1.7l2.9-.2h1.6l3.7-.3h.8l4.4-.4h1l4.1-.4,1.5-.2,3.9-.5h1.1l4.9-.8,1.2-.2,3.8-.6h.8l.8-.2,2.2-.4,1.9-.4,2.2-.4,1.8-.4,2.3-.5,1.7-.4,2.3-.6,1.7-.4,2.4-.6,1.6-.4,2.5-.7,1.4-.4,3-.9.9-.2,3.8-1.3h.4l4.2-1.4,1.3-.4,3.4-1.3,1.1-.4,4.4-1.7.8-.4,3.5-1.4,1.3-.6,3.5-1.6.7-.3,4.1-2,1-.6,3.1-1.6,1.2-.6,3.9-2.2,2.1-1.2.5-.3,1.6-1,1.4-.9,1.5-1,1.4-.9,1.5-1.1,1.4-.9,1.4-1,1.3-1,1.4-1.1,1.2-.9,1.4-1.1,1.2-.9,1.3-1.2,1.1-.9,1.3-1.2.9-.8h.1l2.7-2.5.6-.7c.7-.6,1.3-1.3,1.9-1.9l.7-.8,2-2.2.4-.4,2.1-2.7c.1-.1.2-.1.2-.2l.5-.6,1.2-1.6.6-.9,1.1-1.5.6-1,1-1.5.6-.9c.3-.6.7-1.1,1-1.6a1.6,1.6,0,0,1,.4-.7c0-.1,0-.1.1-.2s.5-.9.7-1.4a4.1,4.1,0,0,0,.5-.9l.8-1.7a2.5,2.5,0,0,0,.4-.7l1.1-2.4c0-.1.1-.3.1-.4a16.7,16.7,0,0,0,.8-2h0a3.6,3.6,0,0,0,.4-.9,7.8,7.8,0,0,1,.5-1.4l.3-1c.1-.5.3-.9.4-1.4l.3-1.1.3-1.3.3-1.1.3-1.3v-.2c.1-.3.1-.6.2-.9a5.9,5.9,0,0,0,.2-1.3c.1-.4.1-.7.2-1.1s.1-.9.2-1.3a3.7,3.7,0,0,1,.1-1.1c0-.5.1-.9.1-1.4s.1-.7.1-1.1v-1.3c0-.1.1-.3.1-.4v-1.5h0Z" fill="#3896e3"/><path id="_Path_9" data-name="&lt;Path&gt;" d="M779.6,281.5v-1.8c0-.5-.1-1-.1-1.4v-.4a9.9,9.9,0,0,1-.2-1.7,1.1,1.1,0,0,1-.1-.5c-.1-.4-.1-.9-.2-1.3s-.1-.4-.1-.6-.1-.8-.2-1.2a1.3,1.3,0,0,1-.1-.6,9.4,9.4,0,0,1-.4-1.6,6.4,6.4,0,0,1-.2-.7l-.3-1c-.1-.3-.1-.5-.2-.8l-.3-1-.3-.7c-.2-.5-.3-1-.5-1.5l-.3-.8a3.6,3.6,0,0,1-.4-.9l-.4-.9a2,2,0,0,0-.4-.8,3.6,3.6,0,0,0-.4-.9,10.4,10.4,0,0,1-.4-1l-.3-.5h0c-.1-.1-.2-.2-.2-.3l-.9-1.7-.5-.7h0a10.9,10.9,0,0,0-.8-1.5l-.3-.4a.5.5,0,0,1-.2-.4l-1-1.5-.5-.6a13.3,13.3,0,0,0-1.4-1.9v-.2l-.3-.3a20.9,20.9,0,0,0-1.4-1.7l-.5-.7-1.2-1.4-.4-.4-.3-.3a8.6,8.6,0,0,0-1.3-1.4l-.6-.7-1.8-1.9h-.1l-.3-.3-1.8-1.7-.7-.6-1.5-1.4-.4-.3-.4-.4-1.6-1.3h0l-.8-.6-2.3-1.8h-.1l-.2-.2-2.3-1.7-.8-.5-1.9-1.3-.8-.5h-.1l-2-1.2-.5-.4-.4-.2-2.8-1.7-4.6-2.5-.4-.2-4.4-2.3h-.2l-.5-.2-4.5-2-.4-.2-.3-.2-4.6-1.9h0l-.9-.3h0l-3-1.1-.8-.4-3.7-1.3-.9-.2-3.1-1H706l-.9-.3-3.8-1.1-.7-.2h0l-2.7-.7-.8-.2h-.4l-2.2-.6-1.4-.3-2.1-.5-1.4-.3-2.1-.5h0l-1.4-.3h0l-1.9-.4h-.4l-1-.2-2-.3-1.4-.3-2.1-.3-1.2-.2-2.6-.4h-.8l-3.1-.4h-.3l-3.3-.4h-1.1l-2.3-.2h-1.3l-2-.2h-1.4l-2-.2h-33l-3,.2h-.6l-3.6.3h-.8l-3.3.4h-1.2l-3.2.4h-.9l-3.9.6-1,.2-3.1.5h0l-1.3.2h0l-1.8.4H595l-1.3.3-1.8.3-.6.2-.9.2-1.8.4h-.3l-1.2.3-1.8.4-.8.2-.6.2-1.9.5h-.3l-1,.3-2,.5-1.2.4-2.4.7-.7.2h0l-3.2,1H571l-3.4,1.1-1.1.4-2.8,1-.9.4-3.5,1.3-.7.3-2.8,1.2-1,.5-2.9,1.3-.6.2-3.3,1.7a2,2,0,0,0-.8.4l-2.6,1.3-.9.5-3.2,1.8-2.1,1.2a4.1,4.1,0,0,1-1.1.7h-.1l-.8.5-2.9,1.9-.7.4-2.4,1.8-.3.2a1,1,0,0,0-.5.4l-2.7,2-.5.4-2.3,1.9-.3.2c-.1.2-.3.3-.4.4a15.4,15.4,0,0,0-1.9,1.7l-.5.4-1.8,1.8a3,3,0,0,0-.8.8l-.8.8-1.5,1.5h0c0,.1-.1.1-.1.2l-.3.3h0l-1.4,1.6-.2.2-1.6,1.9a4.3,4.3,0,0,0-.4.7l-1,1.2-.3.5a4.4,4.4,0,0,0-.8,1.1l-.3.4-.6.8-.7,1.2-.8,1.2-.4.8h-.1l-.4.8a4.1,4.1,0,0,0-.5.9l-.3.5c-7.3,14-7.9,28.9-1.9,43.1V301l.3-.8a13,13,0,0,0,.8-1.7,2.1,2.1,0,0,1,.4-.6l.4-1,.6-1,.5-.8a7.5,7.5,0,0,1,.7-1.2,3.5,3.5,0,0,1,.5-.8,8.3,8.3,0,0,1,.8-1.2,3.5,3.5,0,0,1,.5-.8,8.3,8.3,0,0,1,.8-1.2l.6-.7.9-1.3.5-.7.7-.7a14.7,14.7,0,0,1,1-1.3l1.9-2.1h0l1.5-1.5a4.6,4.6,0,0,1,.7-.7.8.8,0,0,1,.4-.4l1.6-1.6.5-.5.2-.2,2.5-2.2.6-.5,2.3-1.9.5-.4,2.8-2.1.7-.5,2.4-1.7.7-.5,3.1-2,.7-.4,3.2-2,3.2-1.8.9-.5,2.5-1.3.9-.4,3.3-1.6.6-.3,2.8-1.3,1.1-.5,2.8-1.2.7-.2,3.5-1.4.9-.4,2.8-1,1.1-.4,3.4-1.1h.2l3.1-1,.8-.2,2.4-.7,1.2-.3,2-.6,1.3-.3,1.9-.5,1.4-.4,1.8-.4,1.5-.3,1.8-.4,1.5-.3,1.8-.4,1.5-.3,1.8-.3,1.3-.3,3.1-.5,1-.2,3.9-.6h.9l3.2-.4h1.2l3.3-.4h.8l3.6-.3h.6l3-.3h33l1.9.2h1.4l2.1.2h1.3l2.3.2,1.1.2,3.3.3h.3l3.1.4h.8l2.6.4,1.2.2,2.1.4,1.4.2,2,.4,1.4.2,1.9.4,1.4.3,2.1.5,1.4.3,2.1.5,1.4.3,2.2.6,1.2.3,2.7.7.6.2,3.9,1.2,1,.3,3.1,1,.9.3,3.7,1.3.8.3,3,1.1.9.4,4.5,1.9.8.3,4.5,2,.6.3,4.5,2.3.4.2a47.9,47.9,0,0,1,4.5,2.5l2.9,1.7.9.6,1.9,1.2,1,.6,1.8,1.3.9.6,2.3,1.6.2.2,2.5,1.9.7.5,1.6,1.4.8.7,1.5,1.3.7.6,1.8,1.7.3.3c.7.6,1.3,1.3,2,2l.5.6a8.6,8.6,0,0,1,1.3,1.4l.7.7,1.2,1.4.5.7,1.4,1.7.3.4,1.5,2.1.4.6,1,1.5.5.7.8,1.5a2.5,2.5,0,0,1,.4.7l1,1.7c.7,1.4,1.3,2.7,1.9,4.1a48.4,48.4,0,0,0,4.2-19.9Z" fill="#ffbc00"/><path id="_Path_10" data-name="&lt;Path&gt;" d="M779.6,301.6v-.5c0-.5-.1-1-.1-1.4v-.4a11.1,11.1,0,0,1-.2-1.7,1.3,1.3,0,0,1-.1-.6c-.1-.4-.1-.8-.2-1.2s-.1-.4-.1-.6-.1-.8-.2-1.2a1.3,1.3,0,0,1-.1-.6c-.1-.2-.1-.4-.2-.6a51,51,0,0,1-3,9.1c-.6-1.4-1.2-2.7-1.9-4.1l-1-1.7a2.5,2.5,0,0,0-.4-.7l-.8-1.5-.5-.7-1-1.5-.4-.6-1.5-2.1-.3-.4-1.4-1.7-.5-.7-1.2-1.4-.7-.7a8.6,8.6,0,0,0-1.3-1.4l-.5-.6c-.7-.7-1.3-1.4-2-2l-.3-.3-1.8-1.7-.7-.6-1.5-1.3-.8-.7-1.6-1.4-.7-.5-2.5-1.9-.2-.2-2.3-1.6-.9-.6-1.8-1.3-1-.6-1.9-1.2-.9-.6-2.9-1.7a47.9,47.9,0,0,0-4.5-2.5l-.4-.2-4.5-2.3-.6-.3-4.5-2-.8-.3-4.5-1.9-.9-.4-3-1.1-.8-.3-3.7-1.3-.9-.3-3.1-1-1-.3-3.9-1.2-.6-.2-2.7-.7-1.2-.3-2.2-.6-1.4-.3-2.1-.5-1.4-.3-2.1-.5-1.4-.3-1.9-.4-1.4-.2-2-.4-1.4-.2-2.1-.4L676,243l-2.6-.4h-.8l-3.1-.4h-.3l-3.3-.3-1.1-.2-2.3-.2h-1.3l-2.1-.2h-1.4l-1.9-.2h-33l-3,.3h-.6l-3.6.3h-.8l-3.3.4h-1.2l-3.2.4h-.9l-3.9.6-1,.2-3.1.5-1.3.3-1.8.3-1.5.3-1.8.4-1.5.3-1.8.4-1.5.3-1.8.4-1.4.4-1.9.5-1.3.3-2,.6-1.2.3-2.4.7-.8.2-3.1,1h-.2l-3.4,1.1-1.1.4-2.8,1-.9.4-3.5,1.4-.7.2-2.8,1.2-1.1.5-2.8,1.3-.6.3-3.3,1.6-.9.4-2.5,1.3-.9.5-3.2,1.8-3.2,2-.7.4-3.1,2-.7.5-2.4,1.7-.7.5-2.8,2.1-.5.4-2.3,1.9-.6.5-2.5,2.2-.2.2-.5.5-1.6,1.6a.8.8,0,0,0-.4.4,4.6,4.6,0,0,0-.7.7L516,283h0l-1.9,2.1a14.7,14.7,0,0,0-1,1.3l-.7.7-.5.7-.9,1.3-.6.7a8.3,8.3,0,0,0-.8,1.2,3.5,3.5,0,0,0-.5.8,8.3,8.3,0,0,0-.8,1.2,3.5,3.5,0,0,0-.5.8,7.5,7.5,0,0,0-.7,1.2l-.5.8-.6,1-.4,1a2.1,2.1,0,0,0-.4.6,13,13,0,0,1-.8,1.7l-.3.8v.2a61.5,61.5,0,0,1-2.9-8.9,48.5,48.5,0,0,0,2.9,30.2h.1l.3-.8a13,13,0,0,0,.8-1.7l.4-.7.4-.9.6-1,.5-.8.7-1.3.5-.7a8.3,8.3,0,0,1,.8-1.2,3.5,3.5,0,0,1,.5-.8l.8-1.2.6-.8.9-1.3.5-.6.7-.8,1-1.2c.6-.8,1.3-1.5,1.9-2.2h0l1.5-1.5.7-.8.4-.3a12.1,12.1,0,0,1,1.6-1.6l.5-.5.2-.2,2.5-2.2.6-.6,2.3-1.8.5-.4,2.8-2.1a1.8,1.8,0,0,1,.7-.5l2.4-1.8.7-.4,3.1-2.1.7-.4,3.2-1.9,3.2-1.8.9-.5,2.5-1.3.9-.4,3.3-1.7.6-.2,2.8-1.3,1.1-.5,2.8-1.2.7-.3,3.5-1.3.9-.4,2.8-1,1.1-.4,3.4-1.1h.2l3.1-1,.8-.2,2.4-.7,1.2-.4,2-.5,1.3-.3,1.9-.5,1.4-.4,1.8-.4,1.5-.3,1.8-.4,1.5-.4,1.8-.3,1.5-.3,1.8-.4,1.3-.2,3.1-.5,1-.2,3.9-.6h.9l3.2-.4h1.2l3.3-.4h.8l3.6-.3h.6l3-.2h33l1.9.2h1.4l2.1.2h1.3l2.3.2h1.1l3.3.4h.3l3.1.4h.8l2.6.4,1.2.2,2.1.3,1.4.3,2,.3,1.4.3,1.9.4,1.4.3,2.1.5,1.4.3,2.1.5,1.4.3,2.2.6,1.2.3,2.7.7.6.2L705,271l1,.4,3.1,1,.9.2,3.7,1.3.8.4,3,1.1.9.3,4.5,1.9.8.4,4.5,2,.6.3,4.5,2.3.4.2a47.9,47.9,0,0,1,4.5,2.5l2.9,1.7.9.6,1.9,1.2,1,.6,1.8,1.3.9.5,2.3,1.7c.1.1.2.1.2.2l2.5,1.8.7.6,1.6,1.4.8.6,1.5,1.4.7.6,1.8,1.7.3.3c.7.6,1.3,1.3,2,2s.3.4.5.5l1.3,1.5a4.6,4.6,0,0,1,.7.7l1.2,1.4.5.7,1.4,1.7.3.4,1.5,2.1.4.5,1,1.6.5.7.8,1.5a1.6,1.6,0,0,1,.4.7l1,1.7c.7,1.4,1.3,2.7,1.9,4.1a48.4,48.4,0,0,0,4.2-19.9v-1.8Z" opacity="0.51" fill="url(#Œ_ƒΩ_43-4)"/><path id="_Compound_Path_" data-name="&lt;Compound Path&gt;" d="M810.4,267.7c-5.2-20.7-21.6-40.6-49.1-56.5-67.6-39-176.7-39-243.8,0s-66.8,102.3.7,141.3,176.8,39,243.9,0c32.9-19.2,49.6-44.1,50.1-69.2A58.9,58.9,0,0,0,810.4,267.7ZM739,339.2c-54.4,31.6-143,31.6-197.8,0-18.9-10.9-31.2-24.1-37.2-38s-5.4-29.1,1.9-43.1c.3-.5.5-1,.8-1.4h0c0-.1.1-.1.1-.2l.3-.5a4.1,4.1,0,0,0,.5-.9h.1c.1-.1.1-.2.2-.4l.5-.7.7-1.2h.1a3.5,3.5,0,0,1,.5-.8h0l.3-.4h0l.5-.7.3-.3a10.9,10.9,0,0,1,1.3-1.7h0l.3-.6h.1l1.8-2.1h0l.4-.5,1-1.1h.1l.2-.2c1.5-1.7,3.2-3.4,5-5.1h.1l.4-.3a15.4,15.4,0,0,1,1.9-1.7h.1l.3-.3c1.8-1.5,3.7-3,5.8-4.5a.1.1,0,0,1,.1-.1l.4-.3c2-1.5,4.1-2.9,6.3-4.3l.2-.2.6-.3,1.2-.8a.5.5,0,0,0,.4-.2l1.7-1c2.2-1.3,4.4-2.5,6.7-3.6h0a2,2,0,0,1,.8-.4h0c3.4-1.8,7-3.4,10.6-4.9h0l.7-.3h0l3.5-1.3.9-.4,2.8-1h0l1.1-.4h0l3.4-1.1h.2l3.2-1,.7-.2h0l2.4-.7h0l1.2-.3h0l2-.5h0l1-.3,2.8-.7.8-.2h0l3-.7h.3l1.8-.4h0l.9-.2,2.4-.5h0l1.3-.3,2-.4h1.3l3.1-.5h0l1-.2h0l3.9-.6h.6c1.5-.3,3-.4,4.6-.6h.1l3.3-.4h.8l3.6-.3h.6l3-.2h.9l2.8-.2h29.1l2.2.2h1.4l5.6.5h.8c2.3.3,4.7.5,7,.9h.8l2.6.4h0l1.2.2h0l2.1.3h0l1.4.3h0l2,.3h0l1,.2,2.3.5h.5l.9.2,2.1.5h0l1.4.3h0l2.1.5h0l1.4.3h0l2.2.6h.4l3.5.9.6.2h.1l4.7,1.4h.1l5.8,1.9,5.7,2.1.6.2h.3l4.6,1.9.3.2,4.9,2.2h0l.5.2,4.6,2.4h0l.4.2h0l4.6,2.5,2.8,1.7h0l.4.2,2.5,1.6h.1a64.2,64.2,0,0,1,6,4.2h.1l2.3,1.8h.1l.7.6,1.6,1.3h0l.4.3c1.6,1.4,3.2,2.8,4.7,4.3h.1l1.8,1.9a.1.1,0,0,1,.1.1c.2.2.3.4.5.5h0a8.6,8.6,0,0,1,1.3,1.4h.1l.2.3c1.4,1.5,2.6,3,3.8,4.5h0a13.3,13.3,0,0,1,1.4,1.9.1.1,0,0,1,.1.1l.4.5h0l1,1.5h0l.2.3a11.8,11.8,0,0,1,1.1,1.9h0c.6.9,1.1,1.8,1.6,2.7h0l.3.5a10.4,10.4,0,0,0,.4,1,3.6,3.6,0,0,1,.4.9,2,2,0,0,1,.4.8l.4.9a3.6,3.6,0,0,0,.4.9l.3.8c.2.5.3,1,.5,1.5l.3.7.3,1c.1.3.1.5.2.8l.3,1a6.4,6.4,0,0,0,.2.7,9.4,9.4,0,0,0,.4,1.6,1.3,1.3,0,0,0,.1.6c.1.4.1.8.2,1.2s.1.4.1.6.1.9.2,1.3a1.1,1.1,0,0,0,.1.5,9.9,9.9,0,0,0,.2,1.7v.4c0,.4.1.9.1,1.4V282a48.4,48.4,0,0,1-4.2,19.9,59.5,59.5,0,0,1-5.6,10.1,79.1,79.1,0,0,1-14.3,15.6h0A119.8,119.8,0,0,1,739,339.2Z" fill="#fff"/><path id="_Path_11" data-name="&lt;Path&gt;" d="M512.7,366.8c0-.2,0-.3-.1-.4v-.2h0v-.6a.6.6,0,0,1-.1-.4h0c0-.2,0-.3-.1-.4a.9.9,0,0,0-.1-.5h0c0-.1,0-.2-.1-.2a.9.9,0,0,0-.1-.5.4.4,0,0,0-.1-.3h0l-.2-.5c0-.1-.1-.3-.1-.4h-.1a.3.3,0,0,0-.1-.2c0-.2-.1-.3-.1-.4l-.2-.3h0l-.2-.4c-.1-.1-.1-.3-.2-.4h-.1l-.2-.3-.2-.5c-.1,0-.1-.1-.2-.2h0a.5.5,0,0,1-.2-.4,1,1,0,0,1-.4-.5h0l-.6-.7h0l-.4-.5-.3-.4h0l-.3-.4-.4-.3h-.1c0-.1-.1-.2-.2-.3l-.4-.4h-.2c0-.1-.1-.1-.1-.2l-.4-.3-.2-.2h-.1a.1.1,0,0,0-.1-.1l-.4-.3-.2-.2c-.1,0-.1,0-.1-.1h0l-.4-.2-.4-.3h-.1l-.2-.2h-1.1l-.3-.2h-3.3l-.4.2h-.1l-.6.3-28.4,16.5a1.1,1.1,0,0,1,.7-.3l.5-.2h2.4l.7.2h.1l.8.3h.1l.8.5.9.5h0l.8.6h.1l.7.6a.1.1,0,0,0,.1.1l.7.7a.1.1,0,0,0,.1.1l.7.8h0l.7.9h0l.6.9.3.5.3.5c.1,0,.1.1.1.2l.5.8h0a9.3,9.3,0,0,1,.5,1h0a4.2,4.2,0,0,1,.4,1h0a4.2,4.2,0,0,1,.4,1h0l.3.9h0a3,3,0,0,0,.2,1h0c0,.3.1.6.1,1h0v2h0c0,.3-.1.6-.1.8h0a2.4,2.4,0,0,0-.2.8h-.1a1.4,1.4,0,0,1-.2.6h0l-.4.6h0l-.4.4h-.1l-.3.4h-.2l-.5.3,28.4-16.4.5-.4h.1l.3-.3.2-.2.3-.4h.1l.3-.6h0l.2-.4a.3.3,0,0,1,.1-.2h0a.9.9,0,0,0,.1-.5h.1v-.2c.1-.1.1-.2.1-.4v-.2h0c0-.1.1-.3.1-.4v-.4h0Z" fill="url(#Œ_ƒΩ_3)"/><g id="_Group_4" data-name="&lt;Group&gt;"><path id="_Path_12" data-name="&lt;Path&gt;" d="M475.8,368.9c4.7,2.7,8.6,9.3,8.5,14.7s-3.8,7.6-8.5,4.9-8.6-9.3-8.6-14.7S471.1,366.1,475.8,368.9Z" fill="url(#Œ_ƒΩ_19)"/></g><path id="_Path_13" data-name="&lt;Path&gt;" d="M429.4,383.1s-115.5,51.2-153.8,70.2-9,79,32.3,54.3c57.5-34.4,140.5-92.5,140.5-92.5S451.9,387.9,429.4,383.1Z" fill="#0a3960"/><path id="_Path_14" data-name="&lt;Path&gt;" d="M305.8,504.4c-13.8,8.3-26.1,7.7-35.2,2.4,8.9,7.5,22.2,9.8,37.5.6,57.5-34.4,140.5-92.5,140.5-92.5a23,23,0,0,0,.2-4.4C430.1,423.5,358,473.3,305.8,504.4Z" fill="#56adf5" opacity="0.51" style="mix-blend-mode:hard-light"/><path id="_Path_15" data-name="&lt;Path&gt;" d="M491.2,383.5v-.7c0-.1-.1-.2-.1-.3h0v-.2a2,2,0,0,0-.1-.7,1.3,1.3,0,0,0-.1-.6h0a1.3,1.3,0,0,0-.1-.6c0-.2-.1-.4-.1-.7s0-.1-.1-.2v-.2a.4.4,0,0,0-.1-.3,2.5,2.5,0,0,0-.2-.7,4.3,4.3,0,0,1-.1-.5h-.1a1.4,1.4,0,0,0-.2-.6,6.4,6.4,0,0,0-.2-.7c0-.1,0-.1-.1-.1h0c0-.2-.1-.3-.2-.5a1.4,1.4,0,0,0-.2-.6c-.1-.1-.1-.3-.2-.4h-.1l-.3-.7-.3-.7h-.1l-.3-.5a4.3,4.3,0,0,0-.4-.7c-.1-.1-.1-.2-.2-.4a.1.1,0,0,0-.1-.1l-.3-.6-.6-.8v-.2a4.4,4.4,0,0,1-.8-1.1h-.1l-.6-.7-.4-.6h-.1l-.5-.6-.5-.6a.1.1,0,0,0-.1-.1h0a.8.8,0,0,1-.4-.4l-.6-.5c0-.1-.1-.1-.1-.2h-.2l-.3-.3-.5-.5-.3-.2h-.3l-.6-.5-.4-.3h-.2l-.5-.4-.6-.3h-.1a.5.5,0,0,1-.4-.2l-.6-.3h-.5l-.5-.3-.6-.2H475l-.5-.2h-1.6c-.1,0-.1,0-.1-.1h-2.3l-.7.2h-.1l-1,.5-43.6,25.3,1.1-.4.8-.3h2.4l1.1.2h.1l1.2.3h.1l1.2.5h.1l1.3.7a5.7,5.7,0,0,1,1.3.8h.1l1.2.9c0,.1.1.1.1.2l1.2.9c0,.1,0,.1.1.2l1.1,1c0,.1,0,.1.1.1l1.1,1.3h0l1.1,1.4h0l.9,1.3a5.6,5.6,0,0,0,.5.8,3,3,0,0,1,.4.8l.2.3a7.5,7.5,0,0,1,.7,1.2c0,.1,0,.1.1.2l.7,1.5h0l.6,1.5h.1c.2.5.3,1,.5,1.6h0a8.3,8.3,0,0,1,.4,1.5.1.1,0,0,0,.1.1l.3,1.6h0a7.7,7.7,0,0,0,.2,1.5v3.1h-.1c0,.5-.1.9-.1,1.3h-.1a2,2,0,0,1-.3,1.1v.2a4.2,4.2,0,0,1-.4,1h0l-.6.9h0l-.5.7-.2.2-.5.5-.3.2-.7.5,43.6-25.3.7-.5.2-.2.5-.5.2-.2.5-.7h.1a4.1,4.1,0,0,0,.5-.9h0c.1,0,.1,0,.1-.1l.3-.6a.4.4,0,0,1,.1-.3v-.2c0-.1.1-.1.1-.2a2.5,2.5,0,0,1,.2-.7v-.4c.1,0,.1-.1.1-.2s.1-.4.1-.6v-.4h0v-.2a1.3,1.3,0,0,0,.1-.6v-.6h0Z" fill="#c7e4f9"/><path id="_Path_16" data-name="&lt;Path&gt;" d="M446.3,404.1c-1.5-7.5-5.5-16.1-16.1-19.4C407.9,395.6,299,449.4,280.5,459c-20.6,10.7-5.4,39.9,23.1,29.6C328.5,479.6,421,420.3,446.3,404.1Z" fill="#0c5689" style="mix-blend-mode:lighten"/><path id="_Path_17" data-name="&lt;Path&gt;" d="M435.8,387.5s-52.6,26.4-59.3,29.1-2.2,5.7,4.3,2.5,57.1-30,57.1-30Z" fill="#a1d2f8"/><path id="_Path_18" data-name="&lt;Path&gt;" d="M370.5,421.6c.5.9-1.3,2.7-4,4.1s-5.2,1.9-5.6,1,1.3-2.7,4-4.1S370,420.7,370.5,421.6Z" fill="#a1d2f8"/></g><path d="M823.6,313.2s1,2.9-.7,18.1-3.2,37.8-3.2,37.8l-4.8,55.7-10.8.2-3.2-54.2c-.4-4.7-1.5-55.9-1.5-55.9Z" fill="#002138"/><path d="M814.4,421.6l.7,4.9-4.6,2.4-5.2-2.6-4.9-1c-1.4-.3-6.4-5.1-7.1-6.4s2.7-3.9,6.8-2.4Z" fill="#002138"/><path d="M839.3,254.3s.7,19.1,1.1,27.8-3.7,27.4-3.7,27.4l-2,.3-4.6-48.6Z" fill="#0c5689"/><path d="M836.7,309.5s1.9,1.5,1.1,16.7-1,38-1,38l-1.4,55.9-10.8.8L818.2,367c-.7-4.6-8.7-55.8-8.7-55.8Z" fill="#002138"/><path d="M801.6,253.4s19.4-11,22-12.1,11.4,1.1,14.4,8.1,0,18.5,0,18.5l-3,23.4s2.6,17.7,2.7,21.3-12.1,13.9-28.6,14c-8-.5-9.3-3-9.3-3l-1.1-17.9-1.2-49.8Z" fill="#0c5689"/><path d="M797.5,255.9c-8.5,5.4-.5,23.8-4.1,36.3l-8.5,33.1,7.8,3.1s10.7-20.9,13.3-33c5.6-26,4.4-32.4,4.4-32.4S800.6,254,797.5,255.9Z" fill="#0c5689"/><path d="M804.7,225.5s-.3,9,.5,12.2c.4,1.3.8,2.4,1.2,3.4a3.5,3.5,0,0,0,6.8-.9V228Z" fill="#fdefcd"/><polygon points="811 230.9 812.2 249 823.1 247 819.9 235.7 811 230.9" fill="#fdefcd"/><path d="M804.7,225.5v-1.8c-1.4,1.7,5.4,10.2,7.5,8.9s4-1.7,2.4,4.3c-.1.4,1.3,4.2,5.6,6.4a4.8,4.8,0,0,0,2,.1l3.3-4.1a29.5,29.5,0,0,0,2.5-7.7c.8-3.8-1.3-13.9-6.1-14.2a42.8,42.8,0,0,0-10.3-.1C806.5,218,804.2,222.5,804.7,225.5Z" fill="#002138"/><path d="M807.6,250a36.4,36.4,0,0,1,4.6-3s8.7,1.8,10-3.6l2,.7S824.8,252.7,807.6,250Z" fill="#fdefcd"/><path d="M835.2,417.5l.5,4.9-4.7,2.2-5.2-2.8-4.8-1.2c-1.3-.4-6.1-5.3-6.8-6.7s2.8-3.7,6.8-2.1Z" fill="#002138"/><path d="M784.6,325a35.7,35.7,0,0,0-3.5,4.5c-.3,1,.5,1.7,1.5,1s.5.5.2.9a19.1,19.1,0,0,1-1,2.7q.5,1,1.2.9a2,2,0,0,0,1.4.9s.2,1.1.8.9a1.3,1.3,0,0,0,1.2.5s1.9.7,2.6-.5,3-8.6,3-8.6Z" fill="#fdefcd"/><path d="M485,353.9s-1.1,2.9.6,18.1,3.3,37.8,3.3,37.8l4.7,55.7,10.8.2,3.2-54.2c.4-4.7,1.6-55.9,1.6-55.9Z" fill="#002138"/><path d="M494.1,462.3l-.7,4.9,4.6,2.4,5.3-2.6,4.9-1c1.3-.3,6.3-5,7-6.4s-2.6-3.9-6.7-2.4Z" fill="#002138"/><path d="M469.2,295s-2.6,20.9-2,29.5,3.2,25.8,3.2,25.8l3.4.2,4.6-48.6Z" fill="#0c5689"/><path d="M471.1,348.9s-1.2,2.8-.4,18,1,38,1,38l1.4,55.9,10.8.8,6.4-53.9c.7-4.6,8.8-55.8,8.8-55.8Z" fill="#002138"/><path d="M506.9,294.1s-19.3-11-22-12.1-11.4,1.1-14.4,8.1,0,18.5,0,18.5l3,23.4s-2.5,17.7-2.6,21.3,12,13.9,28.5,14c8.1-.5,9.3-3,9.3-3l1.1-17.8,1.2-49.9Z" fill="#0c5689"/><path d="M523.2,365.7a43.5,43.5,0,0,1,3.2,4.3c.3.9-.5,1.6-1.4.9s-.4.5-.2.9.5,1.7.9,2.5a1.1,1.1,0,0,1-1,.9,2,2,0,0,1-1.3.8s-.2,1-.7.8a1.2,1.2,0,0,1-1.1.5s-1.7.7-2.3-.5-2.8-8.1-2.8-8.1Z" fill="#fdefcd"/><path d="M511,296.6c8.5,5.4.5,23.8,4.2,36.3l8.5,33.1-7.8,3.1s-10.3-20.7-13-32.9c-5.6-25.9-4.8-32.5-4.8-32.5S507.9,294.7,511,296.6Z" fill="#0c5689"/><path d="M502.7,268.6s.3,8.6.2,11.8-2,4.1-2,4.1-2.5,0-2.8-4.1V269.9Z" fill="#fdefcd"/><polygon points="499.9 277.7 500.9 291.9 488.4 289.6 488.7 276.4 499.9 277.7" fill="#fdefcd"/><path d="M503.5,263.5v5.1s-1.9.8-2.3,1.5.2,4.4-.4,5.2a31,31,0,0,0-2,3.6h-.7s-1.5-1.2-1.7-1-3.5,6.3-5.5,6.4h-3.5s-2.2-4.2-2.4-4.4-3.9-5.5-3.1-9.3,1.7-9.1,6.5-9.7C504.7,258.8,503.5,263.5,503.5,263.5Z" fill="#002138"/><polyline points="497.5 283.4 497.6 280 500.9 284.5" fill="#fdefcd"/><path d="M502,292.6s-3.1-3.3-4.8-4a18.4,18.4,0,0,1-6.7-1.4,7.5,7.5,0,0,0-5.1-.3h-.2S479.8,293.8,502,292.6Z" fill="#fdefcd"/><path d="M473.3,458.2l-.5,4.9,4.7,2.2,5.2-2.8,4.8-1.2c1.4-.4,6.1-5.3,6.8-6.7s-2.8-3.7-6.8-2.1Z" fill="#002138"/><path d="M387.3,252.5s-1,32.5,5.6,45.1c0,9.4,3.4,37.7,6.2,49.4l7.8-1.2V260.7Z" fill="#002138"/><path d="M403.8,260.7l6.6,35.5s-1.3,34.8,1.2,57.8h7.5s7.1-46.9,7.5-57.6-2.7-43.1-2.7-43.1Z" fill="#002138"/><path d="M411.5,353.6l14.2-4.8c.9-.3,2.9-.3,3.1,1.6s-5,5.3-6.1,5.8a18.2,18.2,0,0,1-3.8.8v1.5s-5.1,1.6-6.5.8S411.5,353.6,411.5,353.6Z" fill="#002138"/><path d="M399.1,344.1l10.9-3.7a1.7,1.7,0,0,1,2.4,1.3c.1,1.5-3.9,4-4.7,4.4a16.2,16.2,0,0,1-3,.7v1.1s-4,1.2-5.1.6S399.1,344.1,399.1,344.1Z" fill="#002138"/><path d="M409.7,169.4s2.8,7,2.7,12.6a6.7,6.7,0,0,1-5.7,4.8c-2.9.2-11-8.3-10.6-9.6S409.7,169.4,409.7,169.4Z" fill="#fdefcd"/><path d="M406.1,199.3h0a4.9,4.9,0,0,1-6.3-3l-2.5-7.2a5.1,5.1,0,0,1,3-6.4h0a5.1,5.1,0,0,1,6.4,3.1l2.5,7.2A5,5,0,0,1,406.1,199.3Z" fill="#fdefcd"/><path d="M428.7,258s2.6,1.8,3.1,2.9-.8,1.3-.8,1.3a4.4,4.4,0,0,1,.2,2.3c-.3.9-2.4,2.3-3.5,2.7s-1.5-.1-1.7-.6-1.4-5.6-1.8-6.4Z" fill="#fdefcd"/><path d="M390.1,190.1c1.5-2.4,12.4,1.9,19.8,5.3a18.9,18.9,0,0,1,11,13.8,23.5,23.5,0,0,1-.2,10.2c-1,3.9-2.5,13.2-3.9,21.1s8.9,11,7,17.8-6.3,6.7-17.3,5.8-19.7-6.7-19.7-6.7.3-11.4,5.3-16.8S382.5,202.7,390.1,190.1Z" fill="#ffcd1c"/><path d="M415.2,199.6c2.6,3.9,5.3,18.6,5.3,28.2s8.2,30.8,8.2,30.8l-4.6,2.2s-11.5-18.2-14.6-26.2-3.1-27.9-3.1-32.7S412.6,195.7,415.2,199.6Z" fill="#ffcd1c"/><path d="M406.5,174.7s4.9-3.5,4.9-6.3-3-9.7-10-8.8-15.2,11.3-14.1,18.5-7.2,10.3-8.6,24.3,6.1,19.6,14.3,19.1c16.5-1.1,8.2-25,11.9-25.3s4.8-7,3.8-11a40.5,40.5,0,0,0-2-6.1S405.5,175.5,406.5,174.7Z" fill="#002138"/><path d="M406.9,213.8s1.6,17.3,2.6,20.2S421,254.5,421,254.5s-12.9-15.5-13.2-19.6S406.9,213.8,406.9,213.8Z" fill="#dd9903"/><polygon points="418.2 205.9 420.2 221.8 421 218.1 418.2 205.9" fill="#dd9903"/><polygon points="631.2 315.5 629.5 304.3 643.9 304.7 643.5 313.7 631.2 315.5" fill="#fdefcd"/><path d="M623.2,488.2a18,18,0,0,0-2.8-.1,2.4,2.4,0,0,0-2.4,2.1,4.1,4.1,0,0,0,2.7,2.8c1.4.5,3.8-.1,4.9.3s5.2.6,5.2.6,2.3.2,3.2-.9-2-6-2-6Z" fill="#002138"/><path d="M657.7,482.6a14.2,14.2,0,0,1,2.2-.6,2.4,2.4,0,0,1,2.6,1.4,3.9,3.9,0,0,1-1.3,3.3c-1,.9-3.1.8-3.8,1.5a22.2,22.2,0,0,1-4,1.7s-1.8.6-2.8-.2-.2-6.2-.2-6.2Z" fill="#002138"/><path d="M645,298.6s1.4-1.2,1.9-.2-.1,3.2-.2,3.8-.9,3.6-3,2.5C643.7,304.7,642.9,300.9,645,298.6Z" fill="#fdefcd"/><path d="M627.7,297.7s-1.5.5-1.6,1.4a8.3,8.3,0,0,0,.6,3.9c.5,1.2,1.6,3,3.3,0S627.7,297.7,627.7,297.7Z" fill="#fdefcd"/><path d="M635.6,285.5c2-.2,10.4.9,10.4,7.7,0,2.5-1,11.8-2.8,13.5s-11.1,2.8-13,0a22.1,22.1,0,0,1-2.9-10.8C627.3,292.3,628,286,635.6,285.5Z" fill="#002138"/><rect x="597.5" y="413.6" width="5.7" height="23.35" fill="#002138"/><polygon points="603.3 413.6 605.4 411.7 605.4 433.5 603.3 436.9 603.3 413.6" fill="#002138"/><polygon points="603.3 413.6 597.5 413.6 600.1 411.7 605.4 411.7 603.3 413.6" fill="#002138"/><path d="M602.4,406.8h0a1,1,0,0,1,1,1V413a0,0,0,0,1,0,0h-1.9a0,0,0,0,1,0,0v-5.2a1,1,0,0,1,1-1Z" fill="#002138"/><path d="M598.5,393.2l-.7,2.6a43.3,43.3,0,0,1-3,5.3,2.9,2.9,0,0,0,0,1c.2.5,3.9,5,4.2,5.4s1.1.4,1.1.4l3.6-1.7,2.1-2.4a26.1,26.1,0,0,0,.2-3.5c-.2-.9-2.2-4.7-2.2-7.1Z" fill="#fdefcd"/><path d="M601.3,406.8h0a1,1,0,0,1,1,1V413a0,0,0,0,1,0,0h-1.9a0,0,0,0,1,0,0v-5.2A1,1,0,0,1,601.3,406.8Z" fill="#002138"/><path d="M610.9,378.6s.1,23.9,1.4,36.4,13.5,75.1,13.5,75.1h7.7s.8-61.2,1.1-69.5,3.2-26.1-2.2-39.3Z" fill="#002138"/><path d="M649.7,376.3a112.1,112.1,0,0,1,3,26.8c0,15.7-.2,30.1-.2,30.1l4.4,54.9h-6.7s-18.2-72.3-20.8-85.5a133.5,133.5,0,0,1-2.2-27.3Z" fill="#002138"/><path d="M642.2,312.3a27.7,27.7,0,0,0-6.4.3A15.3,15.3,0,0,1,642.2,312.3Z" fill="#ffbc00"/><path d="M657.2,336.9c-1.6,7.7-6.2,40.9-5.8,44.8,0,0-17.6,9.3-40.9,1.7,0,0,1.3-14.6,2-23.9-3.2,13-7.6,34.5-7.6,34.5h-7.6l3.6-45.9c2.6-15.2,6.8-18.7,11.6-23.1l7.9-4.7h0c.3-.3,3.9-4.1,7.6-5.8a48.6,48.6,0,0,1,7.8-1.9,27.7,27.7,0,0,1,6.4-.3h0A8.7,8.7,0,0,1,646,314a2.7,2.7,0,0,1,.8.7,32.5,32.5,0,0,1,5.6,5.2A19.6,19.6,0,0,1,657.2,336.9Z" fill="#ffcd1c"/><path d="M555,77.2l-2.8.5-6.9-3.3c-.7-.3-1.2,1.6,0,2.4a3.8,3.8,0,0,1,1.7,2.1s-3.4,3.9-4.6,4.5l-.9.5a1.5,1.5,0,0,0,.4,2.9h0a15.5,15.5,0,0,0,6.4-1.2c.5-.2,5.3-3.3,6.1-3.6a18,18,0,0,1,3-.5l-.3-4.6Z" fill="#fdefcd"/><path d="M609.8,51.1s-3.5-1-7.5,3-18.5,12.7-19.9,13.1-26.2,9.2-26.2,9.2v5.8s26.2-5.1,30.9-8.1,20-7.5,20-7.5Z" fill="#ffcd1c"/><path d="M593.2,70.3c-3.1-1.5-21.5-11.1-21.5-11.1l13.7,24.5,17.1,10.4Z" fill="#fff"/><path d="M592.3,71.3c-3.1-1.5-21.5-11.1-21.5-11.1l13.7,24.5,17.2,10.4Z" fill="#0a3960"/><polygon points="601.7 95.1 602.5 94.1 600.5 88.8 599.3 89 601.7 95.1" fill="#fdefcd"/><polygon points="570.8 60.2 571.7 59.2 574.7 60.8 574.7 62.2 570.8 60.2" fill="#fdefcd"/><path d="M605.2,90a20.8,20.8,0,0,1-2.6-2.6,6.2,6.2,0,0,0-2.7-2.3c-.6-.1-1.5.3-.8,1.3a16.3,16.3,0,0,1,1.4,2.4,24.1,24.1,0,0,1-2.8-1.4c-.4-.3-.8-1.4-1.2-1.5s-1-.1-1,.6.9,2.1,1.3,2.7a21.4,21.4,0,0,0,2.5,2.6l5.7,4.5Z" fill="#fdefcd"/><path d="M628.7,45.5a13.6,13.6,0,0,0-.4,4c.2,2.3,1.1,3.5,4.1,5.3,5.5,3.2.4,8.1,1.9,11.8,3.8,9.1-8,17.5-11.5,9.2s2.4-10.6,2-13.6-5.6-.4-6.1-4.7,1.4-5.1.6-7.3a8,8,0,0,1-.9-3.8c.4-9.8-10.2.2-11.3-9.5-.5-4.1,8-8.8,15.7-3.8S629.8,41.2,628.7,45.5Z" fill="#002138"/></g></g></svg>